<?xml version="1.0" encoding="UTF-8" standalone="no"?>
<!-- Created with Inkscape (http://www.inkscape.org/) -->

<svg
   width="103.59954"
   height="35"
   viewBox="0 0 172.52591 58.286041"
   version="1.1"
   id="svg17631"
   inkscape:version="1.1.2 (0a00cf5339, 2022-02-04)"
   sodipodi:docname="Logo of Modbus.svg"
   xmlns:inkscape="http://www.inkscape.org/namespaces/inkscape"
   xmlns:sodipodi="http://sodipodi.sourceforge.net/DTD/sodipodi-0.dtd"
   xmlns="http://www.w3.org/2000/svg"
   xmlns:svg="http://www.w3.org/2000/svg">
  <sodipodi:namedview
     id="namedview17633"
     pagecolor="#ffffff"
     bordercolor="#666666"
     borderopacity="1.0"
     inkscape:pageshadow="2"
     inkscape:pageopacity="0.0"
     inkscape:pagecheckerboard="0"
     inkscape:document-units="mm"
     showgrid="false"
     inkscape:zoom="0.64052329"
     inkscape:cx="352.0559"
     inkscape:cy="108.50503"
     inkscape:window-width="1850"
     inkscape:window-height="1136"
     inkscape:window-x="70"
     inkscape:window-y="27"
     inkscape:window-maximized="1"
     inkscape:current-layer="layer1" />
  <defs
     id="defs17628">
    <clipPath
       id="clip1">
      <path
         d="M 54,12.761719 H 76 V 34 H 54 Z m 0,0"
         id="path619" />
    </clipPath>
    <clipPath
       id="clip2">
      <path
         d="M 71,73 H 93 V 94.441406 H 71 Z m 0,0"
         id="path622" />
    </clipPath>
    <clipPath
       id="clip3">
      <path
         d="M 32.160156,35 H 54 V 57 H 32.160156 Z m 0,0"
         id="path625" />
    </clipPath>
    <clipPath
       id="clip4">
      <path
         d="m 247,46 h 26.92578 V 67 H 247 Z m 0,0"
         id="path628" />
    </clipPath>
  </defs>
  <g
     inkscape:label="Layer 1"
     inkscape:groupmode="layer"
     id="layer1"
     transform="translate(-11.970621,-119.59261)">
    <path
       style="fill:#f5911c;fill-opacity:1;fill-rule:nonzero;stroke:none;stroke-width:0.713609"
       d="m 61.396335,149.27146 c 0,11.04421 -8.9452,20.00055 -19.983825,20.00055 -11.035839,0 -19.983816,-8.95634 -19.983816,-20.00055 0,-11.04698 8.947977,-20.00054 19.983816,-20.00054 11.038625,0 19.983825,8.95356 19.983825,20.00054"
       id="path944" />
    <path
       style="fill:#fdbf0c;fill-opacity:1;fill-rule:nonzero;stroke:none;stroke-width:0.713609"
       d="m 64.409645,132.37902 c 0.14496,4.13949 -3.09137,7.61274 -7.22807,7.7577 -4.13669,0.14503 -7.60717,-3.09416 -7.75212,-7.23365 -0.14217,-4.13947 3.09416,-7.61275 7.22807,-7.7577 4.1367,-0.14504 7.60718,3.09415 7.75212,7.23365"
       id="path946" />
    <path
       style="fill:#fdbf0c;fill-opacity:1;fill-rule:nonzero;stroke:none;stroke-width:0.713609"
       d="m 33.038765,164.56666 c 0.144956,4.13949 -3.091374,7.61274 -7.22807,7.7577 -4.136699,0.14503 -7.607177,-3.09416 -7.752129,-7.23365 -0.144956,-4.13949 3.091375,-7.61275 7.228071,-7.7577 4.136698,-0.14504 7.607177,3.09415 7.752128,7.23365"
       id="path948" />
    <g
       clip-path="url(#clip1)"
       clip-rule="nonzero"
       id="g952"
       transform="matrix(0.7136082,0,0,0.7136082,-10.979154,110.48574)">
      <path
         style="fill:#fdbf0c;fill-opacity:1;fill-rule:nonzero;stroke:none"
         d="m 69.574219,13.992188 c 5.121093,2.726562 7.066406,9.089843 4.339843,14.214843 -2.722656,5.125 -9.078124,7.070313 -14.199218,4.34375 -5.121094,-2.722656 -7.066406,-9.085937 -4.34375,-14.210937 2.722656,-5.125 9.082031,-7.074219 14.203125,-4.347656"
         id="path950" />
    </g>
    <g
       clip-path="url(#clip2)"
       clip-rule="nonzero"
       id="g956"
       transform="matrix(0.7136082,0,0,0.7136082,-10.979154,110.48574)">
      <path
         style="fill:#fdbf0c;fill-opacity:1;fill-rule:nonzero;stroke:none"
         d="m 86.625,74.648438 c 5.121094,2.722656 7.0625,9.085937 4.339844,14.214843 -2.722656,5.121094 -9.078125,7.070313 -14.199219,4.34375 -5.121094,-2.722656 -7.066406,-9.089843 -4.34375,-14.214843 2.722656,-5.125 9.082031,-7.070313 14.203125,-4.34375"
         id="path954" />
    </g>
    <g
       clip-path="url(#clip3)"
       clip-rule="nonzero"
       id="g960"
       transform="matrix(0.7136082,0,0,0.7136082,-10.979154,110.48574)">
      <path
         style="fill:#fdbf0c;fill-opacity:1;fill-rule:nonzero;stroke:none"
         d="m 37.097656,36.910156 c 4.917969,-3.074218 11.398438,-1.578125 14.472656,3.34375 3.074219,4.925782 1.578126,11.40625 -3.34375,14.484375 -4.917968,3.074219 -11.394531,1.578125 -14.46875,-3.34375 -3.074218,-4.921875 -1.578124,-11.40625 3.339844,-14.484375"
         id="path958" />
    </g>
    <path
       style="fill:#fdbf0c;fill-opacity:1;fill-rule:nonzero;stroke:none;stroke-width:0.713609"
       d="m 59.032505,147.92229 c 3.5095,-2.19377 8.13401,-1.12616 10.3278,2.38613 2.191,3.51229 1.12338,8.13959 -2.38613,10.33618 -3.5095,2.19377 -8.13123,1.12617 -10.32501,-2.38613 -2.19379,-3.51229 -1.12617,-8.13959 2.38334,-10.33618"
       id="path962" />
    <path
       style="fill:#008cc7;fill-opacity:1;fill-rule:nonzero;stroke:none;stroke-width:0.713609"
       d="m 86.963565,148.26516 c -0.76378,0.61047 -1.06761,1.52758 -1.22094,2.44188 -0.15333,0.91711 -0.30662,2.14084 0,2.60077 0.30385,0.45436 1.83143,0.61046 1.83143,0.61046 h 3.5095 c 0,0 1.68087,0 2.44467,-0.45993 0.76377,-0.45715 0.91429,-1.37703 1.21814,-2.5952 0.30941,-1.22373 0.15333,-1.98751 0,-2.44467 -0.1505,-0.45993 -1.67809,-0.61047 -1.67809,-0.61047 h -3.96667 c 0,0 -1.37424,-0.15333 -2.13804,0.45716 z m 2.13804,-4.20359 h 5.03708 c 0,0 3.66282,-0.22858 5.03706,1.37704 1.374245,1.60562 0.68574,3.89418 0.45716,5.4998 -0.22858,1.60283 -0.68573,3.89418 -2.28856,5.27122 -1.60283,1.37425 -4.50186,1.45231 -5.64755,1.6781 -1.14567,0.23137 -6.94653,-0.0753 -6.94653,-0.0753 0,0 -2.67324,-0.0752 -4.35133,-1.8342 -0.65228,-0.68295 0,-3.43702 0.45716,-5.4998 0.45994,-2.05999 1.37425,-4.35132 2.7485,-5.27122 1.37425,-0.91709 5.49701,-1.14567 5.49701,-1.14567"
       id="path964" />
    <path
       style="fill:#008cc7;fill-opacity:1;fill-rule:nonzero;stroke:none;stroke-width:0.713609"
       d="m 107.37108,148.28468 c -0.76377,0.61047 -1.07039,1.52756 -1.22093,2.44467 -0.15333,0.91709 -0.30383,2.13803 0,2.59518 0.30385,0.45996 1.8314,0.61327 1.8314,0.61327 h 3.50951 c 0,0 1.68088,0 2.44466,-0.45996 0.7638,-0.45715 0.91432,-1.37424 1.22094,-2.59518 0.30385,-1.22373 0.1505,-1.98751 0,-2.44467 -0.1505,-0.45995 -1.68089,-0.61326 -1.68089,-0.61326 h -3.96664 c 0,0 -1.37704,-0.1505 -2.13805,0.45995 z m 11.29229,-9.59748 h 4.73323 l -3.97222,19.09738 h -4.73323 l 0.15616,-1.9875 c 0,0 -0.092,0.61882 -1.8342,1.22373 -2.15755,0.74984 -3.8245,0.85298 -3.8245,0.85298 l -4.72485,-0.24252 c 0,0 -1.67531,0 -2.44188,-1.22093 -0.76101,-1.22373 -0.30385,-4.12556 0,-5.34929 0.30662,-1.22373 1.12338,-4.97295 2.7485,-6.11027 1.15404,-0.80838 2.44187,-1.0704 3.20567,-1.0704 0.76378,0 5.03706,0 5.03706,0 0,0 2.13805,0 2.74852,0.76378 0.61324,0.76378 1.0676,1.52756 1.0676,1.52756 l 1.8342,-7.48452"
       id="path966" />
    <path
       style="fill:#008cc7;fill-opacity:1;fill-rule:nonzero;stroke:none;stroke-width:0.713609"
       d="m 130.42119,147.97804 c -0.76378,0.61047 -1.06763,1.52758 -1.22094,2.44467 -0.15333,0.91711 -0.30384,2.13805 0,2.59798 0.30383,0.45715 1.83141,0.61046 1.83141,0.61046 h 3.51229 c 0,0 1.6781,0 2.44188,-0.45993 0.76099,-0.45715 0.91709,-1.37424 1.22094,-2.59518 0.30383,-1.22373 0.1505,-1.98753 0,-2.44467 -0.15333,-0.45716 -1.6781,-0.61326 -1.6781,-0.61326 h -3.96945 c 0,0 -1.37425,-0.1505 -2.13803,0.45993 z m -2.44746,9.34661 -5.03706,0.15333 4.12277,-19.09459 h 4.73044 l -1.6781,7.63783 c 0,0 1.22094,-1.22652 2.59519,-1.68089 1.37147,-0.45993 4.57992,-0.61047 4.57992,-0.61047 0,0 3.51229,-0.15333 4.88375,0.7638 1.37425,0.9143 2.13802,1.83418 1.06763,5.95974 -1.06763,4.12276 -1.7422,5.2322 -2.89904,6.10748 -0.87807,0.669 -3.66281,1.37703 -5.80365,1.37703 -2.13246,0 -4.27328,0.1505 -6.10469,-2.59797 l -0.45716,1.98473"
       id="path968" />
    <path
       style="fill:#008cc7;fill-opacity:1;fill-rule:nonzero;stroke:none;stroke-width:0.713609"
       d="m 146.64742,144.14798 h 5.03706 l -1.37425,6.45593 c -0.17558,1.02859 -0.87807,2.89066 0.68574,3.30601 1.98471,0.52964 5.94023,0.6272 7.19183,-1.87601 0.64393,-1.28783 2.04884,-7.88593 2.04884,-7.88593 h 4.73044 l -2.74851,13.6366 h -4.88654 l 0.76377,-2.59797 c 0,0 -0.91429,0.76378 -2.13523,1.37424 -1.22373,0.61327 -2.59521,1.53037 -5.80086,1.37704 -3.20845,-0.15333 -5.64755,-1.37704 -5.3437,-3.66837 0.30383,-2.29136 1.83141,-10.12154 1.83141,-10.12154"
       id="path970" />
    <g
       clip-path="url(#clip4)"
       clip-rule="nonzero"
       id="g974"
       transform="matrix(0.7136082,0,0,0.7136082,-10.979154,110.48574)">
      <path
         style="fill:#008cc7;fill-opacity:1;fill-rule:nonzero;stroke:none"
         d="m 267.16016,52.363281 h 6.63281 c 0,0 0.63281,-2.773437 -0.85156,-3.851562 -2.12891,-1.542969 -3.64063,-1.925781 -6.41797,-1.925781 -2.78516,0 -7.70313,0 -7.70313,0 0,0 -2.46484,0.08984 -5.13281,1.070312 -1.90625,0.699219 -3.42578,2.140625 -3.85156,5.136719 -0.42969,2.996093 0,4.710937 2.99218,5.351562 2.9961,0.644531 7.0625,0 7.0625,0 0,0 5.5586,-0.210937 6.41797,0.859375 0.85157,1.070313 0.42578,1.710938 -0.85937,2.351563 -1.28516,0.640625 -3.63281,0.855469 -5.5586,0.855469 -1.92578,0 -4.70703,0 -5.13671,-0.855469 -0.42579,-0.855469 -0.42579,-1.5 -0.42579,-1.5 h -6.41796 c 0,0 -1.07032,3 -0.21485,3.855469 0.85938,0.855468 0.85938,2.570312 8.98438,2.785156 8.1289,0.210937 8.14453,-0.234375 9.84375,-0.429688 1.69922,-0.199218 4.48437,-1.285156 5.5625,-3.640625 1.0664,-2.351562 1.37109,-5.894531 0.85547,-6.636719 -0.95704,-1.367187 -3.21094,-1.925781 -5.13672,-1.925781 -1.92578,0 -9.62891,-0.214843 -9.62891,-0.214843 0,0 -2.13672,0.214843 -1.92187,-1.285157 0.21093,-1.5 2.99609,-1.5 4.92187,-1.5 1.92188,0 5.13281,0.214844 5.77344,0.859375 0.64062,0.640625 0.21094,0.640625 0.21094,0.640625"
         id="path972" />
    </g>
    <path
       style="fill:#2bb34a;fill-opacity:1;fill-rule:nonzero;stroke:none;stroke-width:0.713609"
       d="m 40.481474,142.70405 c 0.730335,1.32964 1.87601,0.10033 1.87601,0.10033 l -1.485754,4.06981 -3.336677,-2.75966 c 0,0 1.608406,0.47945 1.569382,-1.03697 -0.04181,-1.51641 -1.970785,-8.63018 -2.701119,-9.95706 -0.730333,-1.32964 -1.876009,-0.10316 -1.876009,-0.10316 l 1.485753,-4.06701 3.336677,2.75687 c 0,0 -1.608406,-0.47666 -1.566592,1.03975 0.03902,1.51364 1.967998,8.62741 2.698329,9.95708"
       id="path976" />
    <path
       style="fill:#2bb34a;fill-opacity:1;fill-rule:nonzero;stroke:none;stroke-width:0.713609"
       d="m 46.577808,165.27748 c 0.730337,1.32964 1.876007,0.10316 1.876007,0.10316 l -1.48575,4.06979 -3.336678,-2.75966 c 0,0 1.608406,0.47667 1.56938,-1.03974 -0.04181,-1.51364 -1.970786,-8.62741 -2.701119,-9.95708 -0.727546,-1.32685 -1.87601,-0.10033 -1.87601,-0.10033 l 1.485756,-4.06699 3.336675,2.75687 c 0,0 -1.608406,-0.47947 -1.56938,1.03696 0.04181,1.51641 1.970785,8.63018 2.701119,9.95706"
       id="path978" />
    <path
       style="fill:#2bb34a;fill-opacity:1;fill-rule:nonzero;stroke:none;stroke-width:0.713609"
       d="m 46.608472,145.07624 c -0.786085,1.29618 0.850193,1.67807 0.850193,1.67807 l -4.264921,0.74428 0.719184,-4.27049 c 0,0 0.390254,1.6335 1.683669,0.84182 1.290628,-0.79444 6.481008,-6.02106 7.264308,-7.32004 0.78608,-1.29621 -0.8502,-1.6781 -0.8502,-1.6781 l 4.26493,-0.74428 -0.71919,4.27049 c 0,0 -0.39025,-1.63349 -1.68088,-0.83902 -1.29341,0.79165 -6.4838,6.02106 -7.267093,7.31727"
       id="path980" />
    <path
       style="fill:#2bb34a;fill-opacity:1;fill-rule:nonzero;stroke:none;stroke-width:0.713609"
       d="m 30.123007,161.6481 c -0.786085,1.29621 0.847408,1.6781 0.847408,1.6781 l -4.262136,0.74707 0.719184,-4.2733 c 0,0 0.390254,1.63349 1.680882,0.84184 1.290628,-0.79445 6.48101,-6.02107 7.267095,-7.32007 0.786084,-1.2962 -0.850196,-1.6753 -0.850196,-1.6753 l 4.262136,-0.74705 -0.719184,4.27049 c 0,0 -0.387466,-1.63349 -1.680882,-0.84184 -1.290626,0.79446 -6.481012,6.02385 -7.264307,7.32006"
       id="path982" />
    <path
       style="fill:#2bb34a;fill-opacity:1;fill-rule:nonzero;stroke:none;stroke-width:0.713609"
       d="m 47.617555,151.57117 c -1.516416,-0.0307 -1.02581,1.57497 -1.02581,1.57497 l -2.779169,-3.31996 4.055859,-1.51083 c 0,0 -1.218152,1.15402 0.11429,1.87601 1.33244,0.72197 8.4518,2.60633 9.96543,2.63979 1.51642,0.0307 1.0286,-1.57775 1.0286,-1.57775 l 2.77638,3.32274 -4.05586,1.51085 c 0,0 1.21815,-1.15405 -0.11429,-1.87601 -1.33244,-0.72199 -8.4518,-2.60635 -9.96543,-2.63981"
       id="path984" />
    <path
       style="fill:#2bb34a;fill-opacity:1;fill-rule:nonzero;stroke:none;stroke-width:0.713609"
       d="m 25.03576,145.56963 c -1.516418,-0.0334 -1.028599,1.57495 -1.028599,1.57495 l -2.77917,-3.32274 4.055858,-1.51085 c 0,0 -1.21815,1.15405 0.11429,1.87601 1.335227,0.72197 8.451798,2.60913 9.968214,2.63979 1.51363,0.0334 1.025811,-1.57495 1.025811,-1.57495 l 2.776384,3.32273 -4.05586,1.51085 c 0,0 1.22094,-1.15404 -0.111498,-1.8788 -1.332442,-0.71917 -8.451798,-2.60633 -9.965428,-2.63699"
       id="path986" />
    <path
       style="fill:#008cc7;fill-opacity:1;fill-rule:nonzero;stroke:none;stroke-width:0.713609"
       d="m 44.501097,157.93789 h 5.954168 l 2.97708,-13.51952 5.03707,13.29094 h 5.03708 l 10.76544,-13.29094 -2.7485,13.51952 h 5.49422 l 4.35134,-19.01932 h -9.15983 l -9.61698,11.68534 -4.34856,-11.91671 h -9.61977 l -4.122758,19.25069"
       id="path988" />
  </g>
</svg>
